<?xml version="1.0" encoding="utf-8"?>
<!-- Generator: Adobe Illustrator 21.0.2, SVG Export Plug-In . SVG Version: 6.00 Build 0)  -->
<svg version="1.1" id="Layer_1" xmlns="http://www.w3.org/2000/svg" xmlns:xlink="http://www.w3.org/1999/xlink" x="0px" y="0px"
	 viewBox="0 0 150 60" style="enable-background:new 0 0 150 60;" xml:space="preserve">
<style type="text/css">
	.st0{fill:#FF4515;}
	.st1{fill:#E90000;}
	.st2{fill:#F2FF15;}
	.st3{fill:#E9FF3F;}
	.st4{fill:#FFFFFF;}
	.st5{fill:#15FF79;}
	.st6{fill:#00ECFF;}
	.st7{fill:#005EFF;}
	.st8{fill:#892AFF;}
	.st9{fill:#FF3F8E;}
	.st10{fill:#BF00BE;}
	.st11{fill:#5EFF2A;}
	.st12{fill:none;}
	.st13{font-family:'MyriadPro-Regular';}
	.st14{font-size:30.938px;}
</style>
<g>
	<polygon class="st0" points="9.2,32.4 16.4,32.4 12.8,38.6 9.2,44.8 5.6,38.6 2,32.4 	"/>
	<polygon class="st1" points="9.2,32 16.4,32 12.8,25.8 9.2,19.6 5.6,25.8 2,32 	"/>
	<polygon class="st2" points="16.6,19.3 23.8,19.3 20.2,25.5 16.6,31.7 13,25.5 9.5,19.3 	"/>
	<polygon class="st3" points="16.6,18.8 23.8,18.8 20.2,12.6 16.6,6.4 13,12.6 9.5,18.8 	"/>
	<polygon class="st4" points="24.4,44.8 31.6,44.8 28,38.6 24.4,32.4 20.8,38.6 17.2,44.8 	"/>
	<polygon class="st5" points="32.2,18.6 39.4,18.6 35.8,12.4 32.2,6.2 28.6,12.4 25,18.6 	"/>
	<polygon class="st6" points="32.2,18.9 39.4,18.9 35.8,25.1 32.2,31.4 28.6,25.1 25,18.9 	"/>
	<polygon class="st7" points="39.7,31.7 46.8,31.7 43.3,25.5 39.7,19.3 36.1,25.5 32.5,31.7 	"/>
	<polygon class="st8" points="39.7,32.2 46.8,32.2 43.3,38.4 39.7,44.6 36.1,38.4 32.5,32.2 	"/>
	<polygon class="st9" points="55.3,32.2 62.4,32.2 58.8,38.4 55.3,44.6 51.7,38.4 48.1,32.2 	"/>
	<polygon class="st10" points="47.4,44.8 54.6,44.8 51,38.6 47.4,32.4 43.9,38.6 40.3,44.8 	"/>
	<polygon class="st11" points="24.4,6.2 31.6,6.2 28,12.4 24.4,18.6 20.8,12.4 17.2,6.2 	"/>
</g>
<rect x="68.8" y="22" class="st12" width="86.2" height="22.8"/>
<text transform="matrix(1 0 0 1 68.7578 43.9785)" class="st4 st13 st14">Alison</text>
</svg>
