<?xml version="1.0" encoding="iso-8859-1"?>
<!-- Generator: Adobe Illustrator 19.0.0, SVG Export Plug-In . SVG Version: 6.00 Build 0)  -->
<svg xmlns="http://www.w3.org/2000/svg" xmlns:xlink="http://www.w3.org/1999/xlink" version="1.1" id="Capa_1" x="0px" y="0px" viewBox="0 0 496 496" style="enable-background:new 0 0 496 496;" xml:space="preserve" width="512px" height="512px">
<g>
	<g>
		<path d="M435.08,141.832l-30.728-49.16c-4.704-7.528-12.392-12.84-21.096-14.584L360,73.44v-4.496c4.92-5.632,8-12.904,8-20.944    V32c0-17.648-14.352-32-32-32s-32,14.352-32,32v16c0,6.84,2.2,13.152,5.872,18.36l-1.928,3.848l-5.752-1.92    C293.632,65.448,284.72,64,275.704,64h-33.816c-10.464,0-20.944-2.472-30.312-7.16C200,51.056,187.048,48,174.112,48h-28.816    l-24-8H100L84.016,61.312c-6.68,8.912-14.064,17.424-22.36,25.72C58.008,90.68,56,95.528,56,100.688    C56,111.336,64.664,120,75.312,120c6.04,0,11.728,2.352,16,6.624l36.728,36.728c7.44,7.44,15.992,13.608,25.416,18.328    c13.488,6.736,28.576,10.312,43.648,10.328l7.328,6.104c26.12,21.76,55.192,39.584,86.424,52.968    c4.712,2.016,8.568,5.648,10.856,10.232c1.496,2.984,2.288,6.344,2.288,9.696v76.344c0,7.528-1.208,14.976-3.584,22.12    c-2.928,8.776-4.416,17.92-4.416,27.176v14.704c0,7.528-1.208,14.976-3.584,22.12c-2.928,8.776-4.416,17.92-4.416,27.176V472    c0,13.232,10.768,24,24,24s24-10.768,24-24v-11.352c0-7.528,1.208-14.976,3.584-22.12l8-24c2.928-8.776,4.416-17.92,4.416-27.176    v-49.76c0-5.712,0.704-11.424,2.088-16.968l9.848-39.408c2.696-10.752,4.064-21.848,4.064-32.968v-3.968l20.44-13.624    l43.768-50.608c5.024-5.856,7.792-13.336,7.792-21.056C440,152.912,438.296,146.976,435.08,141.832z M375.96,142.76l13.8,17.24    l-13.872,17.344L375.96,142.76z M320,32c0-8.824,7.176-16,16-16c8.824,0,16,7.176,16,16v16c0,8.824-7.176,16-16,16    c-8.824,0-16-7.176-16-16V32z M343.552,79l-1.344,2.688C340.264,85.584,336.352,88,332,88s-8.264-2.416-10.208-6.312L320.944,80    l1.552-3.096C326.608,78.84,331.16,80,336,80C338.616,80,341.12,79.6,343.552,79z M118.704,56l24,8h31.408    c10.464,0,20.944,2.472,30.312,7.16C216,76.944,228.952,80,241.888,80h33.816c0.208,0,0.4,0.048,0.608,0.048    C278.672,83.312,280,87.2,280,91.312V104h-6.112c-10.472,0-20.952-2.472-30.312-7.16C232,91.056,219.048,88,206.112,88h-1.816    c-7.296,0-14.504-1.168-21.432-3.48L145.296,72h-20.352l-8-16H118.704z M193.808,175.808c-11.488-0.488-22.904-3.296-33.184-8.432    c-7.896-3.96-15.048-9.112-21.272-15.336l-36.728-36.728C95.336,108.016,85.632,104,75.312,104c-1.824,0-3.312-1.488-3.312-3.312    c0-0.872,0.352-1.728,1.384-2.76C81.8,89.52,89.68,80.424,96.816,70.912l5.824-7.76l1.36,2.736v19.936    c0,14.144,7.712,27.136,20.128,33.912l72.04,39.296l1.68,0.608L193.808,175.808z M203.304,144.688l-71.504-39    c-6.632-3.616-10.976-10.264-11.688-17.68h22.6l35.104,11.704c8.544,2.84,17.464,4.288,26.48,4.288h1.816    c10.464,0,20.944,2.472,30.312,7.16C248,116.944,260.952,120,273.888,120H280v52.576L203.304,144.688z M336,387.352    c0,7.528-1.208,14.976-3.584,22.12l-8,24c-2.928,8.776-4.416,17.92-4.416,27.176V472c0,4.416-3.584,8-8,8c-4.416,0-8-3.584-8-8    v-11.352c0-7.528,1.208-14.976,3.584-22.12c2.928-8.776,4.416-17.92,4.416-27.176v-14.704c0-7.528,1.208-14.976,3.584-22.12    c1.584-4.752,2.712-9.608,3.44-14.528H336V387.352z M348.424,277.344l-9.856,39.408c-1.704,6.808-2.568,13.824-2.568,20.84V344    h-16v-72.992c0-5.832-1.376-11.656-3.976-16.856c-3.984-7.968-10.688-14.28-18.872-17.784    c-29.8-12.776-57.552-29.784-82.48-50.544l-5.696-4.744l3.984-15.928l69.488,25.336c15.464,29.424,39.648,53.92,68.816,69.824    C350.688,266.048,349.824,271.752,348.424,277.344z M360,126.632v64.576l-6.048,30.232c-1.296,6.48-1.952,13.112-1.952,19.728    v1.192c-23.696-14.584-43.248-35.632-56-60.408V112v-8V91.312c0-2.88-0.448-5.664-1.112-8.392    c0.744,0.216,1.512,0.312,2.248,0.552l9.192,3.072l1.152,2.304C312.152,98.192,321.544,104,332,104    c10.376,0,19.704-5.736,24.408-14.96l14.112,2.824C363.68,102.072,360,114.064,360,126.632z M420.064,169.64l-41.424,48.32    l-8.856,5.904l3.56-17.792L410.24,160l-33.456-41.824c1.432-7.84,4.832-15.16,9.976-21.336c1.568,1.192,2.96,2.616,4.024,4.312    l30.728,49.168c1.624,2.6,2.488,5.6,2.488,8.672C424,162.888,422.6,166.672,420.064,169.64z" fill="#FFFFFF"/>
	</g>
</g>
<g>
</g>
<g>
</g>
<g>
</g>
<g>
</g>
<g>
</g>
<g>
</g>
<g>
</g>
<g>
</g>
<g>
</g>
<g>
</g>
<g>
</g>
<g>
</g>
<g>
</g>
<g>
</g>
<g>
</g>
</svg>
