<?xml version="1.0" encoding="utf-8"?>
<!-- Generator: Adobe Illustrator 21.0.2, SVG Export Plug-In . SVG Version: 6.00 Build 0)  -->
<svg version="1.1" id="Layer_1" xmlns="http://www.w3.org/2000/svg" xmlns:xlink="http://www.w3.org/1999/xlink" x="0px" y="0px"
	 viewBox="0 0 1366 600" style="enable-background:new 0 0 1366 600;" xml:space="preserve">
<style type="text/css">
	.st0{fill:#494949;}
	.st1{opacity:0.38;fill:url(#SVGID_1_);}
	.st2{opacity:0.38;fill:url(#SVGID_2_);}
	.st3{opacity:0.38;fill:url(#SVGID_3_);}
</style>
<g>
	<rect class="st0" width="1366" height="600"/>
	<g>
		<linearGradient id="SVGID_1_" gradientUnits="userSpaceOnUse" x1="678.0133" y1="293" x2="1223.9867" y2="293">
			<stop  offset="0" style="stop-color:#FFFFFF"/>
			<stop  offset="1" style="stop-color:#FFFFFF"/>
		</linearGradient>
		<circle class="st1" cx="951" cy="293" r="273"/>
		<linearGradient id="SVGID_2_" gradientUnits="userSpaceOnUse" x1="639.18" y1="300" x2="1262.8201" y2="300">
			<stop  offset="0" style="stop-color:#FFFFFF"/>
			<stop  offset="1" style="stop-color:#FFFFFF"/>
		</linearGradient>
		<path class="st2" d="M1262.8,293c0,153.5-110.9,281.1-256.9,307H896.1c-146-25.9-256.9-153.5-256.9-307
			c0-134.6,85.3-249.4,204.9-293h213.9C1177.5,43.6,1262.8,158.4,1262.8,293z"/>
		<linearGradient id="SVGID_3_" gradientUnits="userSpaceOnUse" x1="598" y1="300" x2="1304" y2="300">
			<stop  offset="0" style="stop-color:#FFFFFF"/>
			<stop  offset="1" style="stop-color:#FFFFFF"/>
		</linearGradient>
		<path class="st3" d="M1147.9,0H754.1C659.9,63.4,598,171,598,293c0,131.5,72,246.3,178.6,307h348.7
			c106.7-60.7,178.6-175.5,178.6-307C1304,171,1242.1,63.4,1147.9,0z"/>
	</g>
</g>
</svg>
